<svg xmlns="http://www.w3.org/2000/svg" xmlns:xlink="http://www.w3.org/1999/xlink" width="619" height="619" viewBox="0 0 619 619"><defs><clipPath id="a"><path d="M0,210.844H423.127V-21.821H0Z" transform="translate(0 21.821)" fill="none"/></clipPath></defs><g transform="translate(-306 -205)"><circle cx="309.5" cy="309.5" r="309.5" transform="translate(306 205)"/><g transform="translate(404.188 398.6)"><g clip-path="url(#a)"><g transform="translate(167.014 0.001)"><path d="M372.926,6.538V0Q357.668.96,331.62.96H316.213L246.3,189.316,174.812.005Q164.156.96,147,.96,127.457.96,116.815,0V6.538q11.755.48,17.081,2.548a40.771,40.771,0,0,1,16.762,11.792l81.972,211.788h5.246L316.213,21.837V196.488q0,12.267-1.995,17.849a12.2,12.2,0,0,1-7.229,7.656q-5.246,2.063-17,2.548v6.524q13.658-.959,41.627-.949,26.054,0,41.306.949v-6.525q-11.755-.5-17.081-2.548a12.177,12.177,0,0,1-7.3-7.656q-1.983-5.576-1.994-17.849V34.579q0-12.267,1.994-17.849a12.186,12.186,0,0,1,7.3-7.645q5.324-2.06,17.08-2.548" transform="translate(-116.815 -0.001)" fill="#fff"/></g><g transform="translate(-0.001 0.007)"><path d="M56.564,197.121V33.944q0-11.628,1.909-17.529a12.849,12.849,0,0,1,6.984-8.21q5.086-2.3,15.258-2.3,33.363,0,53.142,11.707t28.52,35.377q8.733,23.655,8.733,61.277,0,37.44-8.018,61.586t-27.723,36.738q-19.7,12.582-54.336,12.582-10.331,0-15.493-2.313a12.771,12.771,0,0,1-7.069-8.125q-1.919-5.822-1.909-17.614M.006.005V6.53q11.755.5,17.081,2.548a12.177,12.177,0,0,1,7.3,7.656q2,5.576,1.994,17.849V196.492q0,12.267-1.994,17.849a12.16,12.16,0,0,1-7.3,7.645q-5.333,2.063-17.081,2.549v6.537q13.658-.959,40.357-.959,7.629,0,24.386.48t21.219.48q36.85,0,63.389-14.583a97.576,97.576,0,0,0,40.431-41.274q13.9-26.677,13.9-62.226,0-55.291-28.672-84.137T88.817.005q-4.289,0-49.09.949l-7.954.16Q17.476,1.114,0,0" transform="translate(0.001 -0.005)" fill="#fff"/></g></g></g></g></svg> 