<svg xmlns="http://www.w3.org/2000/svg" xmlns:xlink="http://www.w3.org/1999/xlink" width="113.42" height="113.42" viewBox="0 0 113.42 113.42">
  <defs>
    <clipPath id="clip-path">
      <rect id="Rectangle_1230" data-name="Rectangle 1230" width="51.823" height="28.495" fill="#fff"/>
    </clipPath>
  </defs>
  <g id="Group_2132" data-name="Group 2132" transform="translate(-369.391 -1713.389)">
    <rect id="Rectangle_1229" data-name="Rectangle 1229" width="80.2" height="80.2" transform="translate(369.391 1770.1) rotate(-45)" fill="#222121"/>
    <g id="Group_2131" data-name="Group 2131" transform="translate(400 1755.998)">
      <g id="Group_2130" data-name="Group 2130" transform="translate(0 0.001)" clip-path="url(#clip-path)">
        <path id="Path_1822" data-name="Path 1822" d="M234.011.8V0q-1.868.116-5.06.117h-1.887L218.5,23.188,209.745,0q-1.3.116-3.405.117-2.394,0-3.7-.117V.8a7.052,7.052,0,0,1,2.092.312,4.985,4.985,0,0,1,2.053,1.444L216.828,28.5h.642l9.594-25.822V24.067a7.089,7.089,0,0,1-.243,2.186,1.5,1.5,0,0,1-.886.937,6.952,6.952,0,0,1-2.082.312v.8q1.674-.117,5.1-.117,3.191,0,5.06.117v-.8a7.061,7.061,0,0,1-2.092-.312,1.492,1.492,0,0,1-.9-.937,7.092,7.092,0,0,1-.243-2.186V4.237a7.1,7.1,0,0,1,.243-2.186,1.492,1.492,0,0,1,.9-.937A7.044,7.044,0,0,1,234.011.8" transform="translate(-182.188 -0.002)" fill="#fff"/>
        <path id="Path_1823" data-name="Path 1823" d="M6.927,24.144V4.158a7.42,7.42,0,0,1,.233-2.147,1.574,1.574,0,0,1,.856-1.005A4.727,4.727,0,0,1,9.885.723a12.728,12.728,0,0,1,6.509,1.434,8.1,8.1,0,0,1,3.493,4.333,22.036,22.036,0,0,1,1.07,7.5,24.33,24.33,0,0,1-.983,7.543,8.209,8.209,0,0,1-3.4,4.5,12.3,12.3,0,0,1-6.655,1.542,4.855,4.855,0,0,1-1.9-.283,1.565,1.565,0,0,1-.866-1,7.4,7.4,0,0,1-.233-2.157M0,0V.8a7.061,7.061,0,0,1,2.092.312,1.494,1.494,0,0,1,.9.937A7.1,7.1,0,0,1,3.23,4.236v19.83a7.1,7.1,0,0,1-.243,2.186,1.491,1.491,0,0,1-.9.937A7.023,7.023,0,0,1,0,27.5v.8q1.673-.117,4.943-.117.934,0,2.987.059t2.6.059a15.892,15.892,0,0,0,7.764-1.785,11.952,11.952,0,0,0,4.952-5.055,16.274,16.274,0,0,0,1.7-7.622q0-6.773-3.512-10.3T10.878,0q-.526,0-6.013.117l-.973.02Q2.14.138,0,0" transform="translate(0 -0.001)" fill="#fff"/>
      </g>
    </g>
  </g>
</svg>
