<?xml version="1.0" standalone="no"?>
<!DOCTYPE svg PUBLIC "-//W3C//DTD SVG 20010904//EN"
 "http://www.w3.org/TR/2001/REC-SVG-20010904/DTD/svg10.dtd">
<svg version="1.0" xmlns="http://www.w3.org/2000/svg"
 width="700.000000pt" height="700.000000pt" viewBox="0 0 700.000000 700.000000"
 preserveAspectRatio="xMidYMid meet">
<metadata>
Created by potrace 1.14, written by Peter Selinger 2001-2017
</metadata>
<g transform="translate(0.000000,700.000000) scale(0.100000,-0.100000)"
fill="#000000" stroke="none">
<path d="M353 6985 c-124 -34 -244 -128 -297 -233 -60 -119 -56 118 -56 -3252
0 -3370 -4 -3133 56 -3252 33 -64 122 -154 190 -190 116 -62 -129 -58 3254
-58 3370 0 3133 -4 3252 56 64 33 154 122 190 190 62 116 58 -129 58 3254 0
2740 -2 3092 -15 3145 -44 167 -173 296 -342 340 -84 22 -6209 21 -6290 0z
m1917 -3418 c388 -81 624 -244 772 -533 102 -198 143 -396 142 -689 0 -263
-35 -443 -125 -641 -97 -217 -294 -421 -514 -532 -80 -40 -252 -93 -365 -113
-107 -19 -156 -20 -680 -20 l-565 1 0 33 0 32 75 7 c99 10 159 40 185 93 20
39 20 63 23 1080 2 721 -1 1056 -9 1092 -19 92 -70 126 -211 139 -68 7 -68 7
-68 38 l0 31 628 0 c562 0 636 -2 712 -18z m1552 -1023 c216 -573 394 -1041
396 -1039 2 2 176 467 386 1034 211 567 385 1033 387 1035 2 2 145 7 317 11
l312 7 0 -35 0 -34 -67 -7 c-141 -14 -192 -50 -212 -148 -8 -38 -11 -360 -9
-1083 l3 -1030 22 -48 c28 -60 77 -84 187 -94 l76 -6 0 -36 0 -36 -460 0 -460
0 0 36 0 36 77 7 c107 9 159 35 187 95 21 46 21 49 23 1086 2 572 -1 1033 -6
1025 -4 -8 -199 -529 -432 -1158 l-424 -1142 -30 0 -31 0 -453 1173 c-441
1140 -454 1173 -494 1210 -77 70 -198 117 -304 117 -31 0 -33 2 -33 33 l0 34
324 -1 324 0 394 -1042z"/>
<path d="M1719 3521 c-59 -11 -80 -23 -112 -60 -47 -57 -49 -89 -45 -1191 3
-1132 -1 -1066 66 -1122 59 -50 210 -61 425 -33 390 51 619 253 711 625 92
371 83 911 -19 1225 -120 365 -390 544 -847 560 -73 2 -154 0 -179 -4z"/>
</g>
</svg>
