<svg xmlns="http://www.w3.org/2000/svg" xmlns:xlink="http://www.w3.org/1999/xlink" width="150" height="80" viewBox="0 0 295.948 162.733">
  <defs>
    <clipPath id="clip-path">
      <path id="Path_143" data-name="Path 143" d="M0,140.912H295.948V-21.821H0Z" transform="translate(0 21.821)" fill="none"/>
    </clipPath>
  </defs>
  <g id="Group_218" data-name="Group 218" transform="translate(0 21.821)">
    <g id="Group_217" data-name="Group 217" transform="translate(0 -21.821)" clip-path="url(#clip-path)">
      <g id="Group_215" data-name="Group 215" transform="translate(116.815 0.001)">
        <path id="Path_141" data-name="Path 141" d="M155.112,3.959V-.613Q144.44.058,126.221.058H115.445L66.545,131.8l-50-132.41Q9.092.058-2.907.058q-13.67,0-21.113-.671V3.959q8.222.336,11.947,1.782A28.516,28.516,0,0,1-.349,13.989L56.985,162.12h3.669L115.445,14.66V136.816q0,8.58-1.395,12.484a8.533,8.533,0,0,1-5.056,5.355q-3.669,1.443-11.887,1.782V161q9.553-.671,29.115-.664,18.223,0,28.891.664v-4.564q-8.222-.347-11.947-1.782a8.517,8.517,0,0,1-5.108-5.355q-1.387-3.9-1.395-12.484V23.572q0-8.58,1.395-12.484a8.523,8.523,0,0,1,5.108-5.347Q146.89,4.3,155.112,3.959" transform="translate(24.02 0.613)" fill="#fff"/>
      </g>
      <g id="Group_216" data-name="Group 216" transform="translate(-0.001 0.005)">
        <path id="Path_142" data-name="Path 142" d="M34.258,119.382V5.251q0-8.133,1.335-12.26a8.987,8.987,0,0,1,4.885-5.742q3.557-1.611,10.672-1.611,23.335,0,37.169,8.188T108.267,18.57q6.108,16.545,6.108,42.859,0,26.187-5.608,43.075T89.377,130.2Q75.6,139,51.373,139q-7.226,0-10.836-1.618a8.932,8.932,0,0,1-4.944-5.683q-1.342-4.072-1.335-12.32M-5.3-18.487v4.564q8.222.347,11.947,1.782a8.517,8.517,0,0,1,5.108,5.355q1.4,3.9,1.395,12.484V118.942q0,8.58-1.395,12.484a8.505,8.505,0,0,1-5.108,5.347Q2.917,138.216-5.3,138.556v4.572q9.553-.671,28.227-.671,5.336,0,17.056.336t14.841.336q25.774,0,44.336-10.2a68.248,68.248,0,0,0,28.279-28.868q9.721-18.659,9.725-43.523,0-38.672-20.054-58.848T56.817-18.487q-3,0-34.335.664l-5.563.112q-10,0-22.224-.776" transform="translate(5.305 18.487)" fill="#fff"/>
      </g>
    </g>
  </g>
</svg>
 

 
 